<svg width="69" height="69" viewBox="0 0 69 69" fill="none" xmlns="http://www.w3.org/2000/svg">
<path d="M34.5 0.199997C15.7235 0.199997 0.5 15.6619 0.5 34.7324C0.5 50.9137 11.4707 64.4532 26.2607 68.2C26.102 67.7338 26 67.1928 26 66.5223V60.6201C24.6202 60.6201 22.3082 60.6201 21.7273 60.6201C19.4012 60.6201 17.3328 59.6043 16.3298 57.7165C15.2163 55.6187 15.0237 52.4101 12.264 50.4475C11.4452 49.7942 12.0685 49.0489 13.012 49.1496C14.7545 49.6504 16.1995 50.8647 17.5595 52.6662C18.9138 54.4705 19.5513 54.8791 22.0815 54.8791C23.3083 54.8791 25.1443 54.8072 26.8727 54.5309C27.802 52.1338 29.4085 49.9266 31.372 48.8849C20.05 47.7022 14.6468 41.9813 14.6468 34.2144C14.6468 30.8705 16.0493 27.636 18.4322 24.9108C17.6502 22.2058 16.667 16.6892 18.7325 14.5885C23.8268 14.5885 26.9067 17.9439 27.6462 18.8504C30.1848 17.9669 32.9728 17.4662 35.9025 17.4662C38.8378 17.4662 41.6372 17.9669 44.1815 18.8561C44.9125 17.9554 47.9952 14.5885 53.1008 14.5885C55.1748 16.6921 54.1803 22.2317 53.3898 24.9309C55.7585 27.6504 57.1525 30.8763 57.1525 34.2144C57.1525 41.9755 51.7578 47.6935 40.4528 48.882C43.5638 50.5309 45.8333 55.164 45.8333 58.6547V66.5223C45.8333 66.8216 45.7682 67.0374 45.7342 67.2935C58.9828 62.577 68.5 49.8 68.5 34.7324C68.5 15.6619 53.2765 0.199997 34.5 0.199997Z" fill="white"/>
</svg>
